<mxfile host="app.diagrams.net" agent="Mozilla/5.0 (Windows NT 10.0; Win64; x64) AppleWebKit/537.36 (KHTML, like Gecko) Chrome/132.0.0.0 Safari/537.36 OPR/117.0.0.0" version="26.2.13">
  <diagram name="Page-1" id="_qcOmSuMuhV6xTqS9fBc">
    <mxGraphModel dx="848" dy="519" grid="0" gridSize="10" guides="1" tooltips="1" connect="1" arrows="1" fold="1" page="1" pageScale="1" pageWidth="827" pageHeight="1169" math="0" shadow="0">
      <root>
        <mxCell id="0" />
        <mxCell id="1" parent="0" />
        <mxCell id="-S7DJr_aftCFXgjF22eF-2" value="&lt;b&gt;:Système de Gestion&lt;/b&gt;" style="shape=umlLifeline;perimeter=lifelinePerimeter;whiteSpace=wrap;html=1;container=0;dropTarget=0;collapsible=0;recursiveResize=0;outlineConnect=0;portConstraint=eastwest;newEdgeStyle={&quot;edgeStyle&quot;:&quot;elbowEdgeStyle&quot;,&quot;elbow&quot;:&quot;vertical&quot;,&quot;curved&quot;:0,&quot;rounded&quot;:0};fillColor=light-dark(#FFFFFF, #ffffff);strokeColor=light-dark(#000000,#000000);labelBackgroundColor=none;fontColor=light-dark(#000000,#000000);" vertex="1" parent="1">
          <mxGeometry x="333" y="85" width="123" height="509" as="geometry" />
        </mxCell>
        <mxCell id="-S7DJr_aftCFXgjF22eF-4" value="" style="html=1;points=[[0,0,0,0,5],[0,1,0,0,-5],[1,0,0,0,5],[1,1,0,0,-5]];perimeter=orthogonalPerimeter;outlineConnect=0;targetShapes=umlLifeline;portConstraint=eastwest;newEdgeStyle={&quot;curved&quot;:0,&quot;rounded&quot;:0};fillColor=light-dark(#FFFFFF,#FFFFFF);strokeColor=light-dark(#000000,#000000);" vertex="1" parent="-S7DJr_aftCFXgjF22eF-2">
          <mxGeometry x="55" y="258" width="10" height="36" as="geometry" />
        </mxCell>
        <mxCell id="-S7DJr_aftCFXgjF22eF-6" value="" style="html=1;points=[[0,0,0,0,5],[0,1,0,0,-5],[1,0,0,0,5],[1,1,0,0,-5]];perimeter=orthogonalPerimeter;outlineConnect=0;targetShapes=umlLifeline;portConstraint=eastwest;newEdgeStyle={&quot;curved&quot;:0,&quot;rounded&quot;:0};fillColor=light-dark(#FFFFFF,#FFFFFF);strokeColor=light-dark(#000000,#000000);" vertex="1" parent="-S7DJr_aftCFXgjF22eF-2">
          <mxGeometry x="56" y="456" width="10" height="40" as="geometry" />
        </mxCell>
        <mxCell id="-S7DJr_aftCFXgjF22eF-65" value="" style="html=1;points=[[0,0,0,0,5],[0,1,0,0,-5],[1,0,0,0,5],[1,1,0,0,-5]];perimeter=orthogonalPerimeter;outlineConnect=0;targetShapes=umlLifeline;portConstraint=eastwest;newEdgeStyle={&quot;curved&quot;:0,&quot;rounded&quot;:0};" vertex="1" parent="-S7DJr_aftCFXgjF22eF-2">
          <mxGeometry x="66" y="471" width="10" height="21" as="geometry" />
        </mxCell>
        <mxCell id="-S7DJr_aftCFXgjF22eF-66" value="&lt;b&gt;&lt;font style=&quot;font-size: 9px;&quot;&gt;Publier l&#39;offre()&lt;/font&gt;&lt;/b&gt;" style="html=1;align=left;spacingLeft=2;endArrow=block;rounded=0;edgeStyle=orthogonalEdgeStyle;curved=0;rounded=0;" edge="1" parent="-S7DJr_aftCFXgjF22eF-2">
          <mxGeometry relative="1" as="geometry">
            <mxPoint x="65" y="456" as="sourcePoint" />
            <Array as="points">
              <mxPoint x="95" y="486" />
            </Array>
            <mxPoint x="75" y="486" as="targetPoint" />
          </mxGeometry>
        </mxCell>
        <mxCell id="-S7DJr_aftCFXgjF22eF-106" value="" style="html=1;points=[[0,0,0,0,5],[0,1,0,0,-5],[1,0,0,0,5],[1,1,0,0,-5]];perimeter=orthogonalPerimeter;outlineConnect=0;targetShapes=umlLifeline;portConstraint=eastwest;newEdgeStyle={&quot;curved&quot;:0,&quot;rounded&quot;:0};fillColor=light-dark(#FFFFFF,#FFFFFF);strokeColor=light-dark(#000000,#000000);" vertex="1" parent="-S7DJr_aftCFXgjF22eF-2">
          <mxGeometry x="57" y="339.25" width="10" height="30.75" as="geometry" />
        </mxCell>
        <mxCell id="-S7DJr_aftCFXgjF22eF-9" value="" style="shape=umlLifeline;perimeter=lifelinePerimeter;whiteSpace=wrap;html=1;container=1;dropTarget=0;collapsible=0;recursiveResize=0;outlineConnect=0;portConstraint=eastwest;newEdgeStyle={&quot;curved&quot;:0,&quot;rounded&quot;:0};participant=umlActor;fillColor=light-dark(#FFFFFF,#000000);strokeColor=light-dark(#000000,#000000);" vertex="1" parent="1">
          <mxGeometry x="227" y="89" width="20" height="514" as="geometry" />
        </mxCell>
        <mxCell id="-S7DJr_aftCFXgjF22eF-11" value="" style="html=1;points=[[0,0,0,0,5],[0,1,0,0,-5],[1,0,0,0,5],[1,1,0,0,-5]];perimeter=orthogonalPerimeter;outlineConnect=0;targetShapes=umlLifeline;portConstraint=eastwest;newEdgeStyle={&quot;curved&quot;:0,&quot;rounded&quot;:0};fillColor=light-dark(#FFFFFF,#FFFFFF);strokeColor=light-dark(#000000,#000000);" vertex="1" parent="-S7DJr_aftCFXgjF22eF-9">
          <mxGeometry x="5" y="255" width="10" height="36" as="geometry" />
        </mxCell>
        <mxCell id="-S7DJr_aftCFXgjF22eF-13" value="" style="html=1;points=[[0,0,0,0,5],[0,1,0,0,-5],[1,0,0,0,5],[1,1,0,0,-5]];perimeter=orthogonalPerimeter;outlineConnect=0;targetShapes=umlLifeline;portConstraint=eastwest;newEdgeStyle={&quot;curved&quot;:0,&quot;rounded&quot;:0};fillColor=light-dark(#FFFFFF,#FFFFFF);strokeColor=light-dark(#000000,#000000);" vertex="1" parent="-S7DJr_aftCFXgjF22eF-9">
          <mxGeometry x="5" y="453" width="10" height="39" as="geometry" />
        </mxCell>
        <mxCell id="-S7DJr_aftCFXgjF22eF-84" value="" style="html=1;points=[[0,0,0,0,5],[0,1,0,0,-5],[1,0,0,0,5],[1,1,0,0,-5]];perimeter=orthogonalPerimeter;outlineConnect=0;targetShapes=umlLifeline;portConstraint=eastwest;newEdgeStyle={&quot;curved&quot;:0,&quot;rounded&quot;:0};fillColor=light-dark(#FFFFFF,#FFFFFF);strokeColor=light-dark(#000000,#000000);" vertex="1" parent="-S7DJr_aftCFXgjF22eF-9">
          <mxGeometry x="5" y="193" width="10" height="39" as="geometry" />
        </mxCell>
        <mxCell id="-S7DJr_aftCFXgjF22eF-22" value="" style="endArrow=block;endFill=1;endSize=12;html=1;rounded=0;strokeColor=light-dark(#000000,#000000);" edge="1" parent="1">
          <mxGeometry width="160" relative="1" as="geometry">
            <mxPoint x="239" y="344" as="sourcePoint" />
            <mxPoint x="388" y="344" as="targetPoint" />
          </mxGeometry>
        </mxCell>
        <mxCell id="-S7DJr_aftCFXgjF22eF-23" value="&lt;font style=&quot;color: light-dark(rgb(0, 0, 0), rgb(0, 0, 0)); font-size: 9px;&quot;&gt;&lt;b&gt;3:Remplir le formulaire()&lt;/b&gt;&lt;/font&gt;" style="text;html=1;align=center;verticalAlign=middle;whiteSpace=wrap;rounded=0;" vertex="1" parent="1">
          <mxGeometry x="235.64" y="324" width="145.08" height="17" as="geometry" />
        </mxCell>
        <mxCell id="-S7DJr_aftCFXgjF22eF-40" value="" style="html=1;verticalAlign=bottom;endArrow=open;dashed=1;endSize=8;curved=0;rounded=0;strokeColor=light-dark(#000000,#000000);" edge="1" parent="1">
          <mxGeometry relative="1" as="geometry">
            <mxPoint x="389" y="541" as="sourcePoint" />
            <mxPoint x="241" y="541" as="targetPoint" />
          </mxGeometry>
        </mxCell>
        <mxCell id="-S7DJr_aftCFXgjF22eF-41" value="&lt;font style=&quot;color: light-dark(rgb(0, 0, 0), rgb(0, 0, 0)); font-size: 9px;&quot;&gt;&lt;b&gt;Afficher offre publier()&lt;/b&gt;&lt;/font&gt;" style="text;html=1;align=center;verticalAlign=middle;whiteSpace=wrap;rounded=0;" vertex="1" parent="1">
          <mxGeometry x="270.28" y="523" width="97" height="17" as="geometry" />
        </mxCell>
        <mxCell id="-S7DJr_aftCFXgjF22eF-75" value="&lt;font style=&quot;font-size: 9px;&quot;&gt;&lt;b&gt;2:Demander création&amp;nbsp;&lt;/b&gt;&lt;/font&gt;&lt;div&gt;&lt;font style=&quot;font-size: 9px;&quot;&gt;&lt;b&gt;d&#39;une offre()&lt;/b&gt;&lt;/font&gt;&lt;/div&gt;" style="text;html=1;align=center;verticalAlign=middle;whiteSpace=wrap;rounded=0;" vertex="1" parent="1">
          <mxGeometry x="249" y="260" width="136.72" height="22" as="geometry" />
        </mxCell>
        <mxCell id="-S7DJr_aftCFXgjF22eF-76" value="&lt;font style=&quot;font-size: 9px;&quot;&gt;&lt;b&gt;:Guide/Organisateur&lt;/b&gt;&lt;/font&gt;" style="text;html=1;align=center;verticalAlign=middle;whiteSpace=wrap;rounded=0;fillColor=#FFFFFF;" vertex="1" parent="1">
          <mxGeometry x="207" y="125" width="61" height="17" as="geometry" />
        </mxCell>
        <mxCell id="-S7DJr_aftCFXgjF22eF-81" value="&lt;font style=&quot;font-size: 9px;&quot;&gt;&lt;b&gt;Vérifier le contenue de l&#39;offre()&lt;/b&gt;&lt;/font&gt;" style="html=1;align=left;spacingLeft=2;endArrow=block;rounded=0;edgeStyle=orthogonalEdgeStyle;curved=0;rounded=0;" edge="1" parent="1">
          <mxGeometry relative="1" as="geometry">
            <mxPoint x="399" y="344" as="sourcePoint" />
            <Array as="points">
              <mxPoint x="429" y="344" />
              <mxPoint x="429" y="374" />
            </Array>
            <mxPoint x="409" y="374" as="targetPoint" />
          </mxGeometry>
        </mxCell>
        <mxCell id="-S7DJr_aftCFXgjF22eF-82" value="" style="html=1;points=[[0,0,0,0,5],[0,1,0,0,-5],[1,0,0,0,5],[1,1,0,0,-5]];perimeter=orthogonalPerimeter;outlineConnect=0;targetShapes=umlLifeline;portConstraint=eastwest;newEdgeStyle={&quot;curved&quot;:0,&quot;rounded&quot;:0};" vertex="1" parent="1">
          <mxGeometry x="399" y="360" width="10" height="21" as="geometry" />
        </mxCell>
        <mxCell id="-S7DJr_aftCFXgjF22eF-83" value="S&#39;authentifier" style="text;align=center;fontStyle=1;verticalAlign=middle;spacingLeft=3;spacingRight=3;strokeColor=none;rotatable=0;points=[[0,0.5],[1,0.5]];portConstraint=eastwest;html=1;" vertex="1" parent="1">
          <mxGeometry x="285" y="187" width="80" height="26" as="geometry" />
        </mxCell>
        <mxCell id="-S7DJr_aftCFXgjF22eF-85" value="" style="html=1;points=[[0,0,0,0,5],[0,1,0,0,-5],[1,0,0,0,5],[1,1,0,0,-5]];perimeter=orthogonalPerimeter;outlineConnect=0;targetShapes=umlLifeline;portConstraint=eastwest;newEdgeStyle={&quot;curved&quot;:0,&quot;rounded&quot;:0};fillColor=light-dark(#FFFFFF,#FFFFFF);strokeColor=light-dark(#000000,#000000);" vertex="1" parent="1">
          <mxGeometry x="389.5" y="285" width="10" height="32" as="geometry" />
        </mxCell>
        <mxCell id="-S7DJr_aftCFXgjF22eF-87" value="" style="endArrow=block;endFill=1;endSize=12;html=1;rounded=0;strokeColor=light-dark(#000000,#000000);" edge="1" parent="1">
          <mxGeometry width="160" relative="1" as="geometry">
            <mxPoint x="242" y="285" as="sourcePoint" />
            <mxPoint x="391" y="285" as="targetPoint" />
          </mxGeometry>
        </mxCell>
        <mxCell id="-S7DJr_aftCFXgjF22eF-88" value="" style="html=1;verticalAlign=bottom;endArrow=open;dashed=1;endSize=8;curved=0;rounded=0;strokeColor=light-dark(#000000,#000000);" edge="1" parent="1">
          <mxGeometry relative="1" as="geometry">
            <mxPoint x="389.5" y="316" as="sourcePoint" />
            <mxPoint x="241.5" y="316" as="targetPoint" />
          </mxGeometry>
        </mxCell>
        <mxCell id="-S7DJr_aftCFXgjF22eF-89" value="&lt;font style=&quot;font-size: 9px;&quot;&gt;&lt;b&gt;Afficher formulaire()&lt;/b&gt;&lt;/font&gt;" style="text;html=1;align=center;verticalAlign=middle;whiteSpace=wrap;rounded=0;" vertex="1" parent="1">
          <mxGeometry x="242" y="295" width="144.72" height="22" as="geometry" />
        </mxCell>
        <mxCell id="-S7DJr_aftCFXgjF22eF-78" value="ref" style="shape=umlFrame;whiteSpace=wrap;html=1;pointerEvents=0;fillColor=#FFFFFF;fillStyle=auto;" vertex="1" parent="1">
          <mxGeometry x="113" y="154" width="566" height="97" as="geometry" />
        </mxCell>
        <mxCell id="-S7DJr_aftCFXgjF22eF-90" value="&lt;font style=&quot;font-size: 14px;&quot;&gt;CAS DE PUBLICATION D&#39;UNE OFFRE&lt;/font&gt;" style="text;align=center;fontStyle=1;verticalAlign=middle;spacingLeft=3;spacingRight=3;strokeColor=none;rotatable=0;points=[[0,0.5],[1,0.5]];portConstraint=eastwest;html=1;" vertex="1" parent="1">
          <mxGeometry x="378" y="22" width="80" height="26" as="geometry" />
        </mxCell>
        <mxCell id="-S7DJr_aftCFXgjF22eF-93" value="" style="html=1;points=[[0,0,0,0,5],[0,1,0,0,-5],[1,0,0,0,5],[1,1,0,0,-5]];perimeter=orthogonalPerimeter;outlineConnect=0;targetShapes=umlLifeline;portConstraint=eastwest;newEdgeStyle={&quot;curved&quot;:0,&quot;rounded&quot;:0};fillColor=light-dark(#FFFFFF,#FFFFFF);strokeColor=light-dark(#000000,#000000);" vertex="1" parent="1">
          <mxGeometry x="233" y="479" width="10" height="35" as="geometry" />
        </mxCell>
        <mxCell id="-S7DJr_aftCFXgjF22eF-94" value="" style="html=1;points=[[0,0,0,0,5],[0,1,0,0,-5],[1,0,0,0,5],[1,1,0,0,-5]];perimeter=orthogonalPerimeter;outlineConnect=0;targetShapes=umlLifeline;portConstraint=eastwest;newEdgeStyle={&quot;curved&quot;:0,&quot;rounded&quot;:0};fillColor=light-dark(#FFFFFF,#FFFFFF);strokeColor=light-dark(#000000,#000000);" vertex="1" parent="1">
          <mxGeometry x="394" y="475" width="10" height="33" as="geometry" />
        </mxCell>
        <mxCell id="-S7DJr_aftCFXgjF22eF-95" value="&lt;b style=&quot;font-size: 9px;&quot;&gt;Vérifier le contenue de l&#39;offre()&lt;/b&gt;" style="html=1;align=left;spacingLeft=2;endArrow=block;rounded=0;edgeStyle=orthogonalEdgeStyle;curved=0;rounded=0;" edge="1" parent="1">
          <mxGeometry relative="1" as="geometry">
            <mxPoint x="404" y="476" as="sourcePoint" />
            <Array as="points">
              <mxPoint x="457" y="476" />
              <mxPoint x="457" y="503" />
              <mxPoint x="420" y="503" />
            </Array>
            <mxPoint x="419.5" y="508" as="targetPoint" />
          </mxGeometry>
        </mxCell>
        <mxCell id="-S7DJr_aftCFXgjF22eF-96" value="&lt;font style=&quot;color: light-dark(rgb(0, 0, 0), rgb(0, 0, 0)); font-size: 9px;&quot;&gt;&lt;b&gt;Afficher Message d&#39;erreur()&lt;/b&gt;&lt;/font&gt;" style="text;html=1;align=center;verticalAlign=middle;whiteSpace=wrap;rounded=0;" vertex="1" parent="1">
          <mxGeometry x="249.96" y="403" width="128" height="17" as="geometry" />
        </mxCell>
        <mxCell id="-S7DJr_aftCFXgjF22eF-97" value="" style="endArrow=block;endFill=1;endSize=12;html=1;rounded=0;strokeColor=light-dark(#000000,#000000);" edge="1" parent="1">
          <mxGeometry width="160" relative="1" as="geometry">
            <mxPoint x="239.5" y="480" as="sourcePoint" />
            <mxPoint x="394" y="480" as="targetPoint" />
          </mxGeometry>
        </mxCell>
        <mxCell id="-S7DJr_aftCFXgjF22eF-98" value="&lt;font style=&quot;color: light-dark(rgb(0, 0, 0), rgb(0, 0, 0));&quot;&gt;&lt;b&gt;Remplir le formulaire()&lt;/b&gt;&lt;/font&gt;" style="text;html=1;align=center;verticalAlign=middle;whiteSpace=wrap;rounded=0;fontSize=9;" vertex="1" parent="1">
          <mxGeometry x="250.24" y="464" width="112.76" height="16" as="geometry" />
        </mxCell>
        <mxCell id="-S7DJr_aftCFXgjF22eF-99" value="" style="html=1;verticalAlign=bottom;endArrow=open;dashed=1;endSize=8;curved=0;rounded=0;strokeColor=light-dark(#000000,#000000);" edge="1" parent="1">
          <mxGeometry relative="1" as="geometry">
            <mxPoint x="395" y="425" as="sourcePoint" />
            <mxPoint x="244.28" y="425" as="targetPoint" />
          </mxGeometry>
        </mxCell>
        <mxCell id="-S7DJr_aftCFXgjF22eF-100" value="Loop" style="shape=umlFrame;whiteSpace=wrap;html=1;pointerEvents=0;" vertex="1" parent="1">
          <mxGeometry x="115" y="384" width="574" height="135" as="geometry" />
        </mxCell>
        <mxCell id="-S7DJr_aftCFXgjF22eF-101" value="&lt;font style=&quot;color: light-dark(rgb(0, 0, 0), rgb(0, 0, 0)); font-size: 10px;&quot;&gt;&lt;b&gt;[contenue incorrecte]&amp;nbsp;&lt;/b&gt;&lt;/font&gt;" style="text;html=1;align=center;verticalAlign=middle;whiteSpace=wrap;rounded=0;" vertex="1" parent="1">
          <mxGeometry x="405" y="386" width="130" height="30" as="geometry" />
        </mxCell>
        <mxCell id="-S7DJr_aftCFXgjF22eF-102" value="" style="html=1;points=[[0,0,0,0,5],[0,1,0,0,-5],[1,0,0,0,5],[1,1,0,0,-5]];perimeter=orthogonalPerimeter;outlineConnect=0;targetShapes=umlLifeline;portConstraint=eastwest;newEdgeStyle={&quot;curved&quot;:0,&quot;rounded&quot;:0};fillColor=light-dark(#FFFFFF,#FFFFFF);strokeColor=light-dark(#000000,#000000);" vertex="1" parent="1">
          <mxGeometry x="233.5" y="422.5" width="10" height="34.5" as="geometry" />
        </mxCell>
        <mxCell id="-S7DJr_aftCFXgjF22eF-103" value="&lt;font style=&quot;color: light-dark(rgb(0, 0, 0), rgb(0, 0, 0)); font-size: 9px;&quot;&gt;&lt;b&gt;Afficher formulaire ()&lt;/b&gt;&lt;/font&gt;" style="text;html=1;align=center;verticalAlign=middle;whiteSpace=wrap;rounded=0;" vertex="1" parent="1">
          <mxGeometry x="239.64000000000001" y="436" width="138.32" height="17" as="geometry" />
        </mxCell>
        <mxCell id="-S7DJr_aftCFXgjF22eF-104" value="" style="html=1;verticalAlign=bottom;endArrow=open;dashed=1;endSize=8;curved=0;rounded=0;strokeColor=light-dark(#000000,#000000);" edge="1" parent="1">
          <mxGeometry relative="1" as="geometry">
            <mxPoint x="396" y="455" as="sourcePoint" />
            <mxPoint x="243" y="455" as="targetPoint" />
          </mxGeometry>
        </mxCell>
        <mxCell id="-S7DJr_aftCFXgjF22eF-105" value="" style="html=1;points=[[0,0,0,0,5],[0,1,0,0,-5],[1,0,0,0,5],[1,1,0,0,-5]];perimeter=orthogonalPerimeter;outlineConnect=0;targetShapes=umlLifeline;portConstraint=eastwest;newEdgeStyle={&quot;curved&quot;:0,&quot;rounded&quot;:0};fillColor=light-dark(#FFFFFF,#FFFFFF);strokeColor=light-dark(#000000,#000000);" vertex="1" parent="1">
          <mxGeometry x="404" y="489" width="10" height="19" as="geometry" />
        </mxCell>
      </root>
    </mxGraphModel>
  </diagram>
</mxfile>
